<?xml version="1.0" encoding="UTF-8"?>
<!-- Do not edit this file with editors other than draw.io -->
<!DOCTYPE svg PUBLIC "-//W3C//DTD SVG 1.1//EN" "http://www.w3.org/Graphics/SVG/1.1/DTD/svg11.dtd">
<svg xmlns="http://www.w3.org/2000/svg" style="background: transparent; background-color: transparent; color-scheme: light dark;" xmlns:xlink="http://www.w3.org/1999/xlink" version="1.1" width="440px" height="511px" viewBox="0 0 440 511" content="&lt;mxfile host=&quot;app.diagrams.net&quot; agent=&quot;Mozilla/5.0 (X11; Linux x86_64) AppleWebKit/537.36 (KHTML, like Gecko) Chrome/142.0.0.0 Safari/537.36&quot; version=&quot;29.0.2&quot; pages=&quot;2&quot; scale=&quot;1&quot; border=&quot;0&quot;&gt;&#10;  &lt;diagram name=&quot;dns-node&quot; id=&quot;Pjl4AffIUJ58vvyyI4DL&quot;&gt;&#10;    &lt;mxGraphModel dx=&quot;925&quot; dy=&quot;1285&quot; grid=&quot;1&quot; gridSize=&quot;10&quot; guides=&quot;1&quot; tooltips=&quot;1&quot; connect=&quot;1&quot; arrows=&quot;1&quot; fold=&quot;1&quot; page=&quot;1&quot; pageScale=&quot;1&quot; pageWidth=&quot;827&quot; pageHeight=&quot;1169&quot; math=&quot;0&quot; shadow=&quot;0&quot;&gt;&#10;      &lt;root&gt;&#10;        &lt;mxCell id=&quot;0&quot; /&gt;&#10;        &lt;mxCell id=&quot;1&quot; parent=&quot;0&quot; /&gt;&#10;        &lt;mxCell id=&quot;pzs4RW3F1BzVTe-qp-hS-4&quot; value=&quot;DNS Server&quot; style=&quot;swimlane;html=1;labelPosition=center;verticalLabelPosition=middle;align=center;verticalAlign=middle;convertToSvg=0;whiteSpace=wrap;textShadow=0;labelBorderColor=none;labelBackgroundColor=none;strokeColor=#808080;&quot; vertex=&quot;1&quot; parent=&quot;1&quot;&gt;&#10;          &lt;mxGeometry x=&quot;40&quot; y=&quot;400&quot; width=&quot;360&quot; height=&quot;320&quot; as=&quot;geometry&quot; /&gt;&#10;        &lt;/mxCell&gt;&#10;        &lt;mxCell id=&quot;pzs4RW3F1BzVTe-qp-hS-7&quot; value=&quot;&amp;lt;font style=&amp;quot;font-size: 14px;&amp;quot; face=&amp;quot;Roboto Mono&amp;quot; data-font-src=&amp;quot;https://fonts.googleapis.com/css?family=Roboto+Mono&amp;quot;&amp;gt;dns-node&amp;lt;/font&amp;gt;&quot; style=&quot;whiteSpace=wrap;html=1;aspect=fixed;&quot; vertex=&quot;1&quot; parent=&quot;pzs4RW3F1BzVTe-qp-hS-4&quot;&gt;&#10;          &lt;mxGeometry x=&quot;220&quot; y=&quot;40&quot; width=&quot;100&quot; height=&quot;100&quot; as=&quot;geometry&quot; /&gt;&#10;        &lt;/mxCell&gt;&#10;        &lt;mxCell id=&quot;pzs4RW3F1BzVTe-qp-hS-8&quot; value=&quot;&amp;lt;font style=&amp;quot;font-size: 14px;&amp;quot; face=&amp;quot;Roboto Mono&amp;quot; data-font-src=&amp;quot;https://fonts.googleapis.com/css?family=Roboto+Mono&amp;quot;&amp;gt;vip-manager&amp;lt;/font&amp;gt;&quot; style=&quot;whiteSpace=wrap;html=1;aspect=fixed;&quot; vertex=&quot;1&quot; parent=&quot;pzs4RW3F1BzVTe-qp-hS-4&quot;&gt;&#10;          &lt;mxGeometry x=&quot;220&quot; y=&quot;200&quot; width=&quot;100&quot; height=&quot;100&quot; as=&quot;geometry&quot; /&gt;&#10;        &lt;/mxCell&gt;&#10;        &lt;mxCell id=&quot;pzs4RW3F1BzVTe-qp-hS-10&quot; value=&quot;&amp;lt;font style=&amp;quot;font-size: 14px;&amp;quot; face=&amp;quot;Roboto Mono&amp;quot; data-font-src=&amp;quot;https://fonts.googleapis.com/css?family=Roboto+Mono&amp;quot;&amp;gt;blocklist-updater&amp;lt;/font&amp;gt;&quot; style=&quot;whiteSpace=wrap;html=1;aspect=fixed;&quot; vertex=&quot;1&quot; parent=&quot;pzs4RW3F1BzVTe-qp-hS-4&quot;&gt;&#10;          &lt;mxGeometry x=&quot;40&quot; y=&quot;200&quot; width=&quot;100&quot; height=&quot;100&quot; as=&quot;geometry&quot; /&gt;&#10;        &lt;/mxCell&gt;&#10;        &lt;mxCell id=&quot;pzs4RW3F1BzVTe-qp-hS-13&quot; value=&quot;&amp;lt;font face=&amp;quot;Roboto Mono&amp;quot; data-font-src=&amp;quot;https://fonts.googleapis.com/css?family=Roboto+Mono&amp;quot; style=&amp;quot;font-size: 14px;&amp;quot;&amp;gt;blocklist&amp;lt;/font&amp;gt;&quot; style=&quot;shape=document;whiteSpace=wrap;html=1;boundedLbl=1;&quot; vertex=&quot;1&quot; parent=&quot;pzs4RW3F1BzVTe-qp-hS-4&quot;&gt;&#10;          &lt;mxGeometry x=&quot;45&quot; y=&quot;55&quot; width=&quot;90&quot; height=&quot;70&quot; as=&quot;geometry&quot; /&gt;&#10;        &lt;/mxCell&gt;&#10;        &lt;mxCell id=&quot;pzs4RW3F1BzVTe-qp-hS-14&quot; value=&quot;Use&quot; style=&quot;endArrow=open;endSize=12;dashed=1;html=1;rounded=0;&quot; edge=&quot;1&quot; parent=&quot;pzs4RW3F1BzVTe-qp-hS-4&quot; source=&quot;pzs4RW3F1BzVTe-qp-hS-7&quot; target=&quot;pzs4RW3F1BzVTe-qp-hS-13&quot;&gt;&#10;          &lt;mxGeometry width=&quot;160&quot; relative=&quot;1&quot; as=&quot;geometry&quot;&gt;&#10;            &lt;mxPoint x=&quot;50&quot; y=&quot;600&quot; as=&quot;sourcePoint&quot; /&gt;&#10;            &lt;mxPoint x=&quot;210&quot; y=&quot;600&quot; as=&quot;targetPoint&quot; /&gt;&#10;          &lt;/mxGeometry&gt;&#10;        &lt;/mxCell&gt;&#10;        &lt;mxCell id=&quot;pzs4RW3F1BzVTe-qp-hS-15&quot; value=&quot;Create&quot; style=&quot;endArrow=open;endSize=12;dashed=1;html=1;rounded=0;&quot; edge=&quot;1&quot; parent=&quot;pzs4RW3F1BzVTe-qp-hS-4&quot; source=&quot;pzs4RW3F1BzVTe-qp-hS-10&quot; target=&quot;pzs4RW3F1BzVTe-qp-hS-13&quot;&gt;&#10;          &lt;mxGeometry width=&quot;160&quot; relative=&quot;1&quot; as=&quot;geometry&quot;&gt;&#10;            &lt;mxPoint x=&quot;230&quot; y=&quot;106&quot; as=&quot;sourcePoint&quot; /&gt;&#10;            &lt;mxPoint x=&quot;145&quot; y=&quot;115&quot; as=&quot;targetPoint&quot; /&gt;&#10;          &lt;/mxGeometry&gt;&#10;        &lt;/mxCell&gt;&#10;        &lt;mxCell id=&quot;pzs4RW3F1BzVTe-qp-hS-60&quot; value=&quot;&quot; style=&quot;endArrow=classic;html=1;rounded=0;&quot; edge=&quot;1&quot; parent=&quot;pzs4RW3F1BzVTe-qp-hS-4&quot; source=&quot;pzs4RW3F1BzVTe-qp-hS-8&quot; target=&quot;pzs4RW3F1BzVTe-qp-hS-7&quot;&gt;&#10;          &lt;mxGeometry width=&quot;50&quot; height=&quot;50&quot; relative=&quot;1&quot; as=&quot;geometry&quot;&gt;&#10;            &lt;mxPoint x=&quot;310&quot; y=&quot;260&quot; as=&quot;sourcePoint&quot; /&gt;&#10;            &lt;mxPoint x=&quot;360&quot; y=&quot;210&quot; as=&quot;targetPoint&quot; /&gt;&#10;          &lt;/mxGeometry&gt;&#10;        &lt;/mxCell&gt;&#10;        &lt;mxCell id=&quot;pzs4RW3F1BzVTe-qp-hS-61&quot; value=&quot;healthcheck&quot; style=&quot;edgeLabel;html=1;align=center;verticalAlign=middle;resizable=0;points=[];&quot; vertex=&quot;1&quot; connectable=&quot;0&quot; parent=&quot;pzs4RW3F1BzVTe-qp-hS-60&quot;&gt;&#10;          &lt;mxGeometry x=&quot;-0.0386&quot; relative=&quot;1&quot; as=&quot;geometry&quot;&gt;&#10;            &lt;mxPoint as=&quot;offset&quot; /&gt;&#10;          &lt;/mxGeometry&gt;&#10;        &lt;/mxCell&gt;&#10;        &lt;mxCell id=&quot;pzs4RW3F1BzVTe-qp-hS-5&quot; value=&quot;DNS Server&quot; style=&quot;swimlane;html=1;labelPosition=center;verticalLabelPosition=middle;align=center;verticalAlign=middle;convertToSvg=0;whiteSpace=wrap;textShadow=0;labelBorderColor=none;labelBackgroundColor=none;strokeColor=#808080;&quot; vertex=&quot;1&quot; parent=&quot;1&quot;&gt;&#10;          &lt;mxGeometry x=&quot;440&quot; y=&quot;400&quot; width=&quot;360&quot; height=&quot;320&quot; as=&quot;geometry&quot; /&gt;&#10;        &lt;/mxCell&gt;&#10;        &lt;mxCell id=&quot;pzs4RW3F1BzVTe-qp-hS-6&quot; value=&quot;&amp;lt;font style=&amp;quot;font-size: 14px;&amp;quot; face=&amp;quot;Roboto Mono&amp;quot; data-font-src=&amp;quot;https://fonts.googleapis.com/css?family=Roboto+Mono&amp;quot;&amp;gt;vip-manager&amp;lt;/font&amp;gt;&quot; style=&quot;whiteSpace=wrap;html=1;aspect=fixed;&quot; vertex=&quot;1&quot; parent=&quot;pzs4RW3F1BzVTe-qp-hS-5&quot;&gt;&#10;          &lt;mxGeometry x=&quot;40&quot; y=&quot;200&quot; width=&quot;100&quot; height=&quot;100&quot; as=&quot;geometry&quot; /&gt;&#10;        &lt;/mxCell&gt;&#10;        &lt;mxCell id=&quot;pzs4RW3F1BzVTe-qp-hS-9&quot; value=&quot;&amp;lt;font style=&amp;quot;font-size: 14px;&amp;quot; face=&amp;quot;Roboto Mono&amp;quot; data-font-src=&amp;quot;https://fonts.googleapis.com/css?family=Roboto+Mono&amp;quot;&amp;gt;dns-node&amp;lt;/font&amp;gt;&quot; style=&quot;whiteSpace=wrap;html=1;aspect=fixed;&quot; vertex=&quot;1&quot; parent=&quot;pzs4RW3F1BzVTe-qp-hS-5&quot;&gt;&#10;          &lt;mxGeometry x=&quot;40&quot; y=&quot;40&quot; width=&quot;100&quot; height=&quot;100&quot; as=&quot;geometry&quot; /&gt;&#10;        &lt;/mxCell&gt;&#10;        &lt;mxCell id=&quot;pzs4RW3F1BzVTe-qp-hS-11&quot; value=&quot;&amp;lt;font style=&amp;quot;font-size: 14px;&amp;quot; face=&amp;quot;Roboto Mono&amp;quot; data-font-src=&amp;quot;https://fonts.googleapis.com/css?family=Roboto+Mono&amp;quot;&amp;gt;blocklist-updater&amp;lt;/font&amp;gt;&quot; style=&quot;whiteSpace=wrap;html=1;aspect=fixed;&quot; vertex=&quot;1&quot; parent=&quot;pzs4RW3F1BzVTe-qp-hS-5&quot;&gt;&#10;          &lt;mxGeometry x=&quot;220&quot; y=&quot;200&quot; width=&quot;100&quot; height=&quot;100&quot; as=&quot;geometry&quot; /&gt;&#10;        &lt;/mxCell&gt;&#10;        &lt;mxCell id=&quot;pzs4RW3F1BzVTe-qp-hS-16&quot; value=&quot;&amp;lt;font face=&amp;quot;Roboto Mono&amp;quot; data-font-src=&amp;quot;https://fonts.googleapis.com/css?family=Roboto+Mono&amp;quot; style=&amp;quot;font-size: 14px;&amp;quot;&amp;gt;blocklist&amp;lt;/font&amp;gt;&quot; style=&quot;shape=document;whiteSpace=wrap;html=1;boundedLbl=1;&quot; vertex=&quot;1&quot; parent=&quot;pzs4RW3F1BzVTe-qp-hS-5&quot;&gt;&#10;          &lt;mxGeometry x=&quot;225&quot; y=&quot;55&quot; width=&quot;90&quot; height=&quot;70&quot; as=&quot;geometry&quot; /&gt;&#10;        &lt;/mxCell&gt;&#10;        &lt;mxCell id=&quot;pzs4RW3F1BzVTe-qp-hS-17&quot; value=&quot;Create&quot; style=&quot;endArrow=open;endSize=12;dashed=1;html=1;rounded=0;&quot; edge=&quot;1&quot; target=&quot;pzs4RW3F1BzVTe-qp-hS-16&quot; parent=&quot;pzs4RW3F1BzVTe-qp-hS-5&quot; source=&quot;pzs4RW3F1BzVTe-qp-hS-11&quot;&gt;&#10;          &lt;mxGeometry width=&quot;160&quot; relative=&quot;1&quot; as=&quot;geometry&quot;&gt;&#10;            &lt;mxPoint x=&quot;90&quot; y=&quot;195&quot; as=&quot;sourcePoint&quot; /&gt;&#10;            &lt;mxPoint x=&quot;145&quot; y=&quot;110&quot; as=&quot;targetPoint&quot; /&gt;&#10;          &lt;/mxGeometry&gt;&#10;        &lt;/mxCell&gt;&#10;        &lt;mxCell id=&quot;pzs4RW3F1BzVTe-qp-hS-18&quot; value=&quot;Use&quot; style=&quot;endArrow=open;endSize=12;dashed=1;html=1;rounded=0;&quot; edge=&quot;1&quot; target=&quot;pzs4RW3F1BzVTe-qp-hS-16&quot; parent=&quot;pzs4RW3F1BzVTe-qp-hS-5&quot; source=&quot;pzs4RW3F1BzVTe-qp-hS-9&quot;&gt;&#10;          &lt;mxGeometry width=&quot;160&quot; relative=&quot;1&quot; as=&quot;geometry&quot;&gt;&#10;            &lt;mxPoint x=&quot;220&quot; y=&quot;85&quot; as=&quot;sourcePoint&quot; /&gt;&#10;            &lt;mxPoint x=&quot;210&quot; y=&quot;595&quot; as=&quot;targetPoint&quot; /&gt;&#10;          &lt;/mxGeometry&gt;&#10;        &lt;/mxCell&gt;&#10;        &lt;mxCell id=&quot;pzs4RW3F1BzVTe-qp-hS-62&quot; value=&quot;&quot; style=&quot;endArrow=classic;html=1;rounded=0;&quot; edge=&quot;1&quot; parent=&quot;pzs4RW3F1BzVTe-qp-hS-5&quot; source=&quot;pzs4RW3F1BzVTe-qp-hS-6&quot; target=&quot;pzs4RW3F1BzVTe-qp-hS-9&quot;&gt;&#10;          &lt;mxGeometry width=&quot;50&quot; height=&quot;50&quot; relative=&quot;1&quot; as=&quot;geometry&quot;&gt;&#10;            &lt;mxPoint x=&quot;89.5&quot; y=&quot;190&quot; as=&quot;sourcePoint&quot; /&gt;&#10;            &lt;mxPoint x=&quot;89.5&quot; y=&quot;130&quot; as=&quot;targetPoint&quot; /&gt;&#10;          &lt;/mxGeometry&gt;&#10;        &lt;/mxCell&gt;&#10;        &lt;mxCell id=&quot;pzs4RW3F1BzVTe-qp-hS-63&quot; value=&quot;healthcheck&quot; style=&quot;edgeLabel;html=1;align=center;verticalAlign=middle;resizable=0;points=[];&quot; vertex=&quot;1&quot; connectable=&quot;0&quot; parent=&quot;pzs4RW3F1BzVTe-qp-hS-62&quot;&gt;&#10;          &lt;mxGeometry x=&quot;-0.0386&quot; relative=&quot;1&quot; as=&quot;geometry&quot;&gt;&#10;            &lt;mxPoint as=&quot;offset&quot; /&gt;&#10;          &lt;/mxGeometry&gt;&#10;        &lt;/mxCell&gt;&#10;        &lt;mxCell id=&quot;pzs4RW3F1BzVTe-qp-hS-29&quot; value=&quot;Installer PC&quot; style=&quot;swimlane;html=1;labelPosition=center;verticalLabelPosition=middle;align=center;verticalAlign=middle;convertToSvg=0;whiteSpace=wrap;textShadow=0;labelBorderColor=none;labelBackgroundColor=none;strokeColor=#808080;&quot; vertex=&quot;1&quot; parent=&quot;1&quot;&gt;&#10;          &lt;mxGeometry x=&quot;320&quot; y=&quot;40&quot; width=&quot;200&quot; height=&quot;280&quot; as=&quot;geometry&quot; /&gt;&#10;        &lt;/mxCell&gt;&#10;        &lt;mxCell id=&quot;pzs4RW3F1BzVTe-qp-hS-1&quot; value=&quot;&amp;lt;font style=&amp;quot;font-size: 14px;&amp;quot; face=&amp;quot;Roboto Mono&amp;quot; data-font-src=&amp;quot;https://fonts.googleapis.com/css?family=Roboto+Mono&amp;quot;&amp;gt;installer&amp;lt;/font&amp;gt;&quot; style=&quot;whiteSpace=wrap;html=1;aspect=fixed;&quot; vertex=&quot;1&quot; parent=&quot;pzs4RW3F1BzVTe-qp-hS-29&quot;&gt;&#10;          &lt;mxGeometry x=&quot;50&quot; y=&quot;170&quot; width=&quot;100&quot; height=&quot;100&quot; as=&quot;geometry&quot; /&gt;&#10;        &lt;/mxCell&gt;&#10;        &lt;mxCell id=&quot;pzs4RW3F1BzVTe-qp-hS-21&quot; value=&quot;&quot; style=&quot;sketch=0;pointerEvents=1;shadow=0;dashed=0;html=1;strokeColor=none;fillColor=#505050;labelPosition=center;verticalLabelPosition=bottom;verticalAlign=top;outlineConnect=0;align=center;shape=mxgraph.office.devices.workstation;&quot; vertex=&quot;1&quot; parent=&quot;pzs4RW3F1BzVTe-qp-hS-29&quot;&gt;&#10;          &lt;mxGeometry x=&quot;160&quot; y=&quot;30&quot; width=&quot;33&quot; height=&quot;34.87&quot; as=&quot;geometry&quot; /&gt;&#10;        &lt;/mxCell&gt;&#10;        &lt;mxCell id=&quot;pzs4RW3F1BzVTe-qp-hS-36&quot; value=&quot;&amp;lt;font face=&amp;quot;Roboto Mono&amp;quot; data-font-src=&amp;quot;https://fonts.googleapis.com/css?family=Roboto+Mono&amp;quot; style=&amp;quot;font-size: 14px;&amp;quot;&amp;gt;inventory&amp;lt;/font&amp;gt;&quot; style=&quot;shape=document;whiteSpace=wrap;html=1;boundedLbl=1;&quot; vertex=&quot;1&quot; parent=&quot;pzs4RW3F1BzVTe-qp-hS-29&quot;&gt;&#10;          &lt;mxGeometry x=&quot;10&quot; y=&quot;30.000000000000007&quot; width=&quot;90&quot; height=&quot;70&quot; as=&quot;geometry&quot; /&gt;&#10;        &lt;/mxCell&gt;&#10;        &lt;mxCell id=&quot;pzs4RW3F1BzVTe-qp-hS-38&quot; value=&quot;Use&quot; style=&quot;endArrow=open;endSize=12;dashed=1;html=1;rounded=0;&quot; edge=&quot;1&quot; parent=&quot;pzs4RW3F1BzVTe-qp-hS-29&quot; target=&quot;pzs4RW3F1BzVTe-qp-hS-36&quot; source=&quot;pzs4RW3F1BzVTe-qp-hS-1&quot;&gt;&#10;          &lt;mxGeometry width=&quot;160&quot; relative=&quot;1&quot; as=&quot;geometry&quot;&gt;&#10;            &lt;mxPoint x=&quot;435&quot; y=&quot;-65&quot; as=&quot;sourcePoint&quot; /&gt;&#10;            &lt;mxPoint x=&quot;425&quot; y=&quot;440&quot; as=&quot;targetPoint&quot; /&gt;&#10;          &lt;/mxGeometry&gt;&#10;        &lt;/mxCell&gt;&#10;        &lt;mxCell id=&quot;pzs4RW3F1BzVTe-qp-hS-39&quot; value=&quot;VIP Assigned&quot; style=&quot;fillColor=#008000;aspect=fixed;sketch=0;pointerEvents=1;shadow=0;dashed=0;html=1;strokeColor=none;labelPosition=center;verticalLabelPosition=bottom;outlineConnect=0;verticalAlign=top;align=center;shape=mxgraph.openstack.neutron_floatingip;&quot; vertex=&quot;1&quot; parent=&quot;1&quot;&gt;&#10;          &lt;mxGeometry x=&quot;195&quot; y=&quot;730&quot; width=&quot;50&quot; height=&quot;50&quot; as=&quot;geometry&quot; /&gt;&#10;        &lt;/mxCell&gt;&#10;        &lt;mxCell id=&quot;pzs4RW3F1BzVTe-qp-hS-40&quot; value=&quot;VIP Unassigned&quot; style=&quot;fillColor=#808080;aspect=fixed;sketch=0;pointerEvents=1;shadow=0;dashed=0;html=1;strokeColor=none;labelPosition=center;verticalLabelPosition=bottom;outlineConnect=0;verticalAlign=top;align=center;shape=mxgraph.openstack.neutron_floatingip;&quot; vertex=&quot;1&quot; parent=&quot;1&quot;&gt;&#10;          &lt;mxGeometry x=&quot;595&quot; y=&quot;730&quot; width=&quot;50&quot; height=&quot;50&quot; as=&quot;geometry&quot; /&gt;&#10;        &lt;/mxCell&gt;&#10;        &lt;mxCell id=&quot;pzs4RW3F1BzVTe-qp-hS-41&quot; value=&quot;&quot; style=&quot;endArrow=classic;startArrow=classic;html=1;rounded=0;&quot; edge=&quot;1&quot; parent=&quot;1&quot; source=&quot;pzs4RW3F1BzVTe-qp-hS-6&quot; target=&quot;pzs4RW3F1BzVTe-qp-hS-8&quot;&gt;&#10;          &lt;mxGeometry width=&quot;50&quot; height=&quot;50&quot; relative=&quot;1&quot; as=&quot;geometry&quot;&gt;&#10;            &lt;mxPoint x=&quot;350&quot; y=&quot;840&quot; as=&quot;sourcePoint&quot; /&gt;&#10;            &lt;mxPoint x=&quot;400&quot; y=&quot;790&quot; as=&quot;targetPoint&quot; /&gt;&#10;            &lt;Array as=&quot;points&quot;&gt;&#10;              &lt;mxPoint x=&quot;530&quot; y=&quot;770&quot; /&gt;&#10;              &lt;mxPoint x=&quot;310&quot; y=&quot;770&quot; /&gt;&#10;            &lt;/Array&gt;&#10;          &lt;/mxGeometry&gt;&#10;        &lt;/mxCell&gt;&#10;        &lt;mxCell id=&quot;pzs4RW3F1BzVTe-qp-hS-42&quot; value=&quot;VRRP&quot; style=&quot;edgeLabel;html=1;align=center;verticalAlign=middle;resizable=0;points=[];&quot; vertex=&quot;1&quot; connectable=&quot;0&quot; parent=&quot;pzs4RW3F1BzVTe-qp-hS-41&quot;&gt;&#10;          &lt;mxGeometry x=&quot;0.0253&quot; y=&quot;-1&quot; relative=&quot;1&quot; as=&quot;geometry&quot;&gt;&#10;            &lt;mxPoint as=&quot;offset&quot; /&gt;&#10;          &lt;/mxGeometry&gt;&#10;        &lt;/mxCell&gt;&#10;        &lt;mxCell id=&quot;pzs4RW3F1BzVTe-qp-hS-46&quot; value=&quot;&quot; style=&quot;endArrow=classic;html=1;rounded=0;strokeColor=light-dark(#000000,#00CC00);&quot; edge=&quot;1&quot; parent=&quot;1&quot; source=&quot;pzs4RW3F1BzVTe-qp-hS-39&quot; target=&quot;pzs4RW3F1BzVTe-qp-hS-7&quot;&gt;&#10;          &lt;mxGeometry relative=&quot;1&quot; as=&quot;geometry&quot;&gt;&#10;            &lt;mxPoint x=&quot;330&quot; y=&quot;900&quot; as=&quot;sourcePoint&quot; /&gt;&#10;            &lt;mxPoint x=&quot;490&quot; y=&quot;900&quot; as=&quot;targetPoint&quot; /&gt;&#10;            &lt;Array as=&quot;points&quot;&gt;&#10;              &lt;mxPoint x=&quot;220&quot; y=&quot;580&quot; /&gt;&#10;            &lt;/Array&gt;&#10;          &lt;/mxGeometry&gt;&#10;        &lt;/mxCell&gt;&#10;        &lt;mxCell id=&quot;pzs4RW3F1BzVTe-qp-hS-47&quot; value=&quot;port&amp;lt;div&amp;gt;mapping&amp;lt;/div&amp;gt;&quot; style=&quot;edgeLabel;resizable=0;html=1;;align=center;verticalAlign=middle;&quot; connectable=&quot;0&quot; vertex=&quot;1&quot; parent=&quot;pzs4RW3F1BzVTe-qp-hS-46&quot;&gt;&#10;          &lt;mxGeometry relative=&quot;1&quot; as=&quot;geometry&quot; /&gt;&#10;        &lt;/mxCell&gt;&#10;        &lt;mxCell id=&quot;pzs4RW3F1BzVTe-qp-hS-48&quot; value=&quot;:53&quot; style=&quot;edgeLabel;resizable=0;html=1;;align=left;verticalAlign=bottom;fontColor=light-dark(#000000,#00CC00);fontStyle=1&quot; connectable=&quot;0&quot; vertex=&quot;1&quot; parent=&quot;pzs4RW3F1BzVTe-qp-hS-46&quot;&gt;&#10;          &lt;mxGeometry x=&quot;-1&quot; relative=&quot;1&quot; as=&quot;geometry&quot; /&gt;&#10;        &lt;/mxCell&gt;&#10;        &lt;mxCell id=&quot;pzs4RW3F1BzVTe-qp-hS-49&quot; value=&quot;:1053&quot; style=&quot;edgeLabel;resizable=0;html=1;;align=right;verticalAlign=bottom;fontColor=light-dark(#000000,#00CC00);&quot; connectable=&quot;0&quot; vertex=&quot;1&quot; parent=&quot;pzs4RW3F1BzVTe-qp-hS-46&quot;&gt;&#10;          &lt;mxGeometry x=&quot;1&quot; relative=&quot;1&quot; as=&quot;geometry&quot; /&gt;&#10;        &lt;/mxCell&gt;&#10;        &lt;mxCell id=&quot;pzs4RW3F1BzVTe-qp-hS-50&quot; value=&quot;&quot; style=&quot;endArrow=none;dashed=1;html=1;dashPattern=1 3;strokeWidth=2;rounded=0;&quot; edge=&quot;1&quot; parent=&quot;1&quot; source=&quot;pzs4RW3F1BzVTe-qp-hS-39&quot; target=&quot;pzs4RW3F1BzVTe-qp-hS-8&quot;&gt;&#10;          &lt;mxGeometry width=&quot;50&quot; height=&quot;50&quot; relative=&quot;1&quot; as=&quot;geometry&quot;&gt;&#10;            &lt;mxPoint x=&quot;390&quot; y=&quot;930&quot; as=&quot;sourcePoint&quot; /&gt;&#10;            &lt;mxPoint x=&quot;440&quot; y=&quot;880&quot; as=&quot;targetPoint&quot; /&gt;&#10;          &lt;/mxGeometry&gt;&#10;        &lt;/mxCell&gt;&#10;        &lt;mxCell id=&quot;pzs4RW3F1BzVTe-qp-hS-51&quot; value=&quot;&quot; style=&quot;endArrow=none;dashed=1;html=1;dashPattern=1 3;strokeWidth=2;rounded=0;&quot; edge=&quot;1&quot; parent=&quot;1&quot; source=&quot;pzs4RW3F1BzVTe-qp-hS-40&quot; target=&quot;pzs4RW3F1BzVTe-qp-hS-6&quot;&gt;&#10;          &lt;mxGeometry width=&quot;50&quot; height=&quot;50&quot; relative=&quot;1&quot; as=&quot;geometry&quot;&gt;&#10;            &lt;mxPoint x=&quot;390&quot; y=&quot;930&quot; as=&quot;sourcePoint&quot; /&gt;&#10;            &lt;mxPoint x=&quot;440&quot; y=&quot;880&quot; as=&quot;targetPoint&quot; /&gt;&#10;          &lt;/mxGeometry&gt;&#10;        &lt;/mxCell&gt;&#10;        &lt;mxCell id=&quot;pzs4RW3F1BzVTe-qp-hS-52&quot; value=&quot;&quot; style=&quot;endArrow=classic;html=1;rounded=0;entryX=0.5;entryY=0;entryDx=0;entryDy=0;&quot; edge=&quot;1&quot; parent=&quot;1&quot; source=&quot;pzs4RW3F1BzVTe-qp-hS-1&quot; target=&quot;pzs4RW3F1BzVTe-qp-hS-4&quot;&gt;&#10;          &lt;mxGeometry width=&quot;50&quot; height=&quot;50&quot; relative=&quot;1&quot; as=&quot;geometry&quot;&gt;&#10;            &lt;mxPoint x=&quot;390&quot; y=&quot;650&quot; as=&quot;sourcePoint&quot; /&gt;&#10;            &lt;mxPoint x=&quot;440&quot; y=&quot;600&quot; as=&quot;targetPoint&quot; /&gt;&#10;          &lt;/mxGeometry&gt;&#10;        &lt;/mxCell&gt;&#10;        &lt;mxCell id=&quot;pzs4RW3F1BzVTe-qp-hS-64&quot; value=&quot;Install or&amp;lt;div&amp;gt;update&amp;lt;/div&amp;gt;&quot; style=&quot;edgeLabel;html=1;align=center;verticalAlign=middle;resizable=0;points=[];&quot; vertex=&quot;1&quot; connectable=&quot;0&quot; parent=&quot;pzs4RW3F1BzVTe-qp-hS-52&quot;&gt;&#10;          &lt;mxGeometry x=&quot;0.2107&quot; y=&quot;-2&quot; relative=&quot;1&quot; as=&quot;geometry&quot;&gt;&#10;            &lt;mxPoint as=&quot;offset&quot; /&gt;&#10;          &lt;/mxGeometry&gt;&#10;        &lt;/mxCell&gt;&#10;        &lt;mxCell id=&quot;pzs4RW3F1BzVTe-qp-hS-53&quot; value=&quot;&quot; style=&quot;endArrow=classic;html=1;rounded=0;entryX=0.5;entryY=0;entryDx=0;entryDy=0;&quot; edge=&quot;1&quot; parent=&quot;1&quot; source=&quot;pzs4RW3F1BzVTe-qp-hS-1&quot; target=&quot;pzs4RW3F1BzVTe-qp-hS-5&quot;&gt;&#10;          &lt;mxGeometry width=&quot;50&quot; height=&quot;50&quot; relative=&quot;1&quot; as=&quot;geometry&quot;&gt;&#10;            &lt;mxPoint x=&quot;390&quot; y=&quot;650&quot; as=&quot;sourcePoint&quot; /&gt;&#10;            &lt;mxPoint x=&quot;440&quot; y=&quot;600&quot; as=&quot;targetPoint&quot; /&gt;&#10;          &lt;/mxGeometry&gt;&#10;        &lt;/mxCell&gt;&#10;        &lt;mxCell id=&quot;pzs4RW3F1BzVTe-qp-hS-65&quot; value=&quot;Install or&amp;lt;div&amp;gt;update&amp;lt;/div&amp;gt;&quot; style=&quot;edgeLabel;html=1;align=center;verticalAlign=middle;resizable=0;points=[];&quot; vertex=&quot;1&quot; connectable=&quot;0&quot; parent=&quot;pzs4RW3F1BzVTe-qp-hS-53&quot;&gt;&#10;          &lt;mxGeometry x=&quot;-0.153&quot; y=&quot;-1&quot; relative=&quot;1&quot; as=&quot;geometry&quot;&gt;&#10;            &lt;mxPoint x=&quot;27&quot; y=&quot;19&quot; as=&quot;offset&quot; /&gt;&#10;          &lt;/mxGeometry&gt;&#10;        &lt;/mxCell&gt;&#10;        &lt;mxCell id=&quot;pzs4RW3F1BzVTe-qp-hS-54&quot; value=&quot;&quot; style=&quot;sketch=0;pointerEvents=1;shadow=0;dashed=0;html=1;strokeColor=none;fillColor=#505050;labelPosition=center;verticalLabelPosition=bottom;verticalAlign=top;outlineConnect=0;align=center;shape=mxgraph.office.devices.workstation;&quot; vertex=&quot;1&quot; parent=&quot;1&quot;&gt;&#10;          &lt;mxGeometry x=&quot;310&quot; y=&quot;910&quot; width=&quot;75.71&quot; height=&quot;80&quot; as=&quot;geometry&quot; /&gt;&#10;        &lt;/mxCell&gt;&#10;        &lt;mxCell id=&quot;pzs4RW3F1BzVTe-qp-hS-55&quot; value=&quot;DNS Clients&quot; style=&quot;sketch=0;pointerEvents=1;shadow=0;dashed=0;html=1;strokeColor=none;fillColor=#505050;labelPosition=center;verticalLabelPosition=bottom;verticalAlign=top;outlineConnect=0;align=center;shape=mxgraph.office.devices.workstation_pc;&quot; vertex=&quot;1&quot; parent=&quot;1&quot;&gt;&#10;          &lt;mxGeometry x=&quot;400&quot; y=&quot;890&quot; width=&quot;73.21&quot; height=&quot;81.5&quot; as=&quot;geometry&quot; /&gt;&#10;        &lt;/mxCell&gt;&#10;        &lt;mxCell id=&quot;pzs4RW3F1BzVTe-qp-hS-57&quot; value=&quot;&quot; style=&quot;sketch=0;pointerEvents=1;shadow=0;dashed=0;html=1;strokeColor=none;fillColor=#505050;labelPosition=center;verticalLabelPosition=bottom;verticalAlign=top;outlineConnect=0;align=center;shape=mxgraph.office.devices.cell_phone_iphone_standalone;&quot; vertex=&quot;1&quot; parent=&quot;1&quot;&gt;&#10;          &lt;mxGeometry x=&quot;490&quot; y=&quot;935&quot; width=&quot;30&quot; height=&quot;50&quot; as=&quot;geometry&quot; /&gt;&#10;        &lt;/mxCell&gt;&#10;        &lt;mxCell id=&quot;pzs4RW3F1BzVTe-qp-hS-58&quot; value=&quot;&quot; style=&quot;endArrow=classic;html=1;rounded=0;&quot; edge=&quot;1&quot; parent=&quot;1&quot; source=&quot;pzs4RW3F1BzVTe-qp-hS-55&quot; target=&quot;pzs4RW3F1BzVTe-qp-hS-39&quot;&gt;&#10;          &lt;mxGeometry width=&quot;50&quot; height=&quot;50&quot; relative=&quot;1&quot; as=&quot;geometry&quot;&gt;&#10;            &lt;mxPoint x=&quot;160&quot; y=&quot;972&quot; as=&quot;sourcePoint&quot; /&gt;&#10;            &lt;mxPoint x=&quot;210&quot; y=&quot;921.5&quot; as=&quot;targetPoint&quot; /&gt;&#10;          &lt;/mxGeometry&gt;&#10;        &lt;/mxCell&gt;&#10;        &lt;mxCell id=&quot;pzs4RW3F1BzVTe-qp-hS-59&quot; value=&quot;Resolve&quot; style=&quot;edgeLabel;html=1;align=center;verticalAlign=middle;resizable=0;points=[];&quot; vertex=&quot;1&quot; connectable=&quot;0&quot; parent=&quot;pzs4RW3F1BzVTe-qp-hS-58&quot;&gt;&#10;          &lt;mxGeometry x=&quot;-0.0981&quot; y=&quot;3&quot; relative=&quot;1&quot; as=&quot;geometry&quot;&gt;&#10;            &lt;mxPoint as=&quot;offset&quot; /&gt;&#10;          &lt;/mxGeometry&gt;&#10;        &lt;/mxCell&gt;&#10;      &lt;/root&gt;&#10;    &lt;/mxGraphModel&gt;&#10;  &lt;/diagram&gt;&#10;  &lt;diagram id=&quot;1NKjnSIVKFQI7jo5utAG&quot; name=&quot;logo&quot;&gt;&#10;    &lt;mxGraphModel dx=&quot;925&quot; dy=&quot;1285&quot; grid=&quot;1&quot; gridSize=&quot;10&quot; guides=&quot;1&quot; tooltips=&quot;1&quot; connect=&quot;1&quot; arrows=&quot;1&quot; fold=&quot;1&quot; page=&quot;1&quot; pageScale=&quot;1&quot; pageWidth=&quot;827&quot; pageHeight=&quot;1169&quot; math=&quot;0&quot; shadow=&quot;0&quot;&gt;&#10;      &lt;root&gt;&#10;        &lt;mxCell id=&quot;0&quot; /&gt;&#10;        &lt;mxCell id=&quot;1&quot; parent=&quot;0&quot; /&gt;&#10;        &lt;mxCell id=&quot;GqR4CK8gAWeMVKo1so-z-2&quot; value=&quot;&quot; style=&quot;image;sketch=0;aspect=fixed;html=1;points=[];align=center;fontSize=12;image=img/lib/mscae/DNS.svg;&quot; vertex=&quot;1&quot; parent=&quot;1&quot;&gt;&#10;          &lt;mxGeometry x=&quot;200&quot; y=&quot;200&quot; width=&quot;320&quot; height=&quot;320&quot; as=&quot;geometry&quot; /&gt;&#10;        &lt;/mxCell&gt;&#10;        &lt;mxCell id=&quot;GqR4CK8gAWeMVKo1so-z-1&quot; value=&quot;&quot; style=&quot;image;sketch=0;aspect=fixed;html=1;points=[];align=center;fontSize=12;image=img/lib/mscae/DNS.svg;&quot; vertex=&quot;1&quot; parent=&quot;1&quot;&gt;&#10;          &lt;mxGeometry x=&quot;80&quot; y=&quot;80&quot; width=&quot;320&quot; height=&quot;320&quot; as=&quot;geometry&quot; /&gt;&#10;        &lt;/mxCell&gt;&#10;        &lt;mxCell id=&quot;GqR4CK8gAWeMVKo1so-z-5&quot; value=&quot;&quot; style=&quot;image;sketch=0;aspect=fixed;html=1;points=[];align=center;fontSize=12;image=img/lib/mscae/Resource_Graph_Explorer.svg;rotation=-60;&quot; vertex=&quot;1&quot; parent=&quot;1&quot;&gt;&#10;          &lt;mxGeometry x=&quot;140&quot; y=&quot;320&quot; width=&quot;225.4&quot; height=&quot;230&quot; as=&quot;geometry&quot; /&gt;&#10;        &lt;/mxCell&gt;&#10;      &lt;/root&gt;&#10;    &lt;/mxGraphModel&gt;&#10;  &lt;/diagram&gt;&#10;&lt;/mxfile&gt;&#10;"><defs/><g><g data-cell-id="0"><g data-cell-id="1"><g data-cell-id="GqR4CK8gAWeMVKo1so-z-2"><g><g><svg xmlns="http://www.w3.org/2000/svg" width="320" height="320" viewBox="-374 616 50 50" x="120" y="120" style="font-family: initial;"><circle fill="#0072c6" cx="-349" cy="641" r="25"/><g fill="#fff"><path opacity=".2" d="M-366.678 658.678c-9.763-9.763-9.763-25.592 0-35.355s25.592-9.763 35.355 0l-35.355 35.355z"/><path opacity=".8" d="M-326 640.996c0-5.152-1.748-10.12-4.968-14.168l-.184-.184c-.092-.092-.092-.184-.184-.276l-1.472-1.564A22.39 22.39 0 0 0-349 617.996h-.184c-6.072.092-11.684 2.392-16.008 6.716l-1.564 1.656c-.092.092-.092.184-.184.276l-.184.092c-3.128 4.048-4.876 9.108-4.876 14.26s1.748 10.12 4.968 14.168l.184.184c.092.092.092.184.184.276l1.472 1.564c4.324 4.324 9.936 6.716 16.008 6.716h.184c6.072 0 11.868-2.392 16.192-6.716l1.472-1.656c.092-.092.092-.184.184-.276l.184-.184c3.22-3.864 4.968-8.924 4.968-14.076zM-335.292 626c-.092 0-.184.092-.276.092-.184.092-.368.184-.46.184-.368.184-.828.276-1.288.46-.092 0-.184.092-.276.092-.552.184-1.012.276-1.564.46-.092 0-.276.092-.368.092-.828-2.208-1.84-4.14-3.036-5.612 2.668.828 5.152 2.3 7.268 4.232zm-13.892-5.336h.092c2.484 0 5.06 2.668 6.9 7.268-2.116.368-4.416.552-6.808.552s-4.784-.184-6.992-.552c1.748-4.508 4.324-7.176 6.808-7.268zm-6.532 1.196c-1.104 1.472-2.116 3.312-2.944 5.52h-.184c-.552-.184-1.104-.276-1.564-.46-.092 0-.184-.092-.276-.092-.368-.184-.828-.368-1.196-.552-.184-.092-.276-.092-.46-.184-.092-.092-.184-.092-.368-.184 2.116-1.748 4.416-3.22 6.992-4.048zm-6.992 34.132c.092 0 .184-.092.276-.092.184-.092.276-.092.46-.184.368-.184.828-.276 1.288-.46.092 0 .184-.092.276-.092.552-.184 1.012-.276 1.564-.46h.184c.828 2.116 1.84 4.048 2.944 5.52-2.576-.92-4.968-2.392-6.992-4.232zm13.616 5.336h-.092c-2.484-.092-5.06-2.668-6.808-7.176 2.208-.368 4.6-.552 6.992-.552s4.6.184 6.808.552c-1.748 4.508-4.416 7.176-6.9 7.176zm6.532-1.104c1.196-1.472 2.208-3.404 3.036-5.612.092 0 .276.092.368.092.552.184 1.104.276 1.564.46.092 0 .184.092.276.092.46.184.828.276 1.288.46.184.092.276.092.46.184.092 0 .184.092.368.184-2.208 1.84-4.692 3.312-7.36 4.14zm9.292-6.348c-.276 0-.46-.092-.736-.184s-.644-.276-.92-.368c-.092 0-.184-.092-.276-.092-1.104-.46-2.3-.736-3.496-1.104.276-1.104.552-2.208.736-3.312h-2.76c-.184 1.012-.368 1.932-.644 2.76-2.392-.46-4.968-.644-7.636-.644-2.76 0-5.336.276-7.82.736-.276-.92-.46-1.84-.644-2.852h-2.76c.184 1.196.46 2.3.736 3.404-1.104.276-2.208.644-3.22 1.012-.092.092-.276.092-.368.184-.276.092-.644.276-.92.368-.184 0-.46.092-.644.184-2.76-3.312-4.324-7.452-4.6-11.684h2.3v-2.668h-2.3c.276-4.232 1.84-8.28 4.508-11.5l.092-.092c.184.092.46.184.644.276.368.184.644.276 1.012.46.092 0 .184.092.276.092 1.012.368 2.116.736 3.312 1.012-.276 1.012-.46 2.024-.644 3.036h2.76l.552-2.484c2.484.46 5.152.736 7.82.736s5.244-.276 7.636-.644a53.93 53.93 0 0 1 .552 2.484h2.76c-.184-1.012-.368-2.024-.644-3.036 1.196-.276 2.3-.644 3.404-1.104.092 0 .276-.092.368-.092.368-.092.644-.276 1.012-.368.184-.092.46-.184.644-.276 2.668 3.312 4.324 7.36 4.6 11.592h-2.76v2.668h2.76c-.46 4.14-2.024 8.28-4.692 11.5z"/><path d="M-354.778 640.855c0 1.1-.143 2.023-.427 2.797s-.694 1.407-1.226 1.896-1.18.85-1.943 1.08-1.67.344-2.723.344h-2.838c-.2 0-.373-.06-.5-.178s-.206-.314-.206-.583v-10.36c0-.27.07-.464.206-.583a.75.75 0 0 1 .51-.179h3.05c1.06 0 1.958.124 2.696.373s1.36.615 1.865 1.102a4.74 4.74 0 0 1 1.153 1.804c.262.715.394 1.546.394 2.488zm-2.498.083a5.95 5.95 0 0 0-.198-1.571 3.35 3.35 0 0 0-.634-1.258 2.92 2.92 0 0 0-1.12-.83c-.456-.198-1.054-.3-1.796-.3h-1.222v8.082h1.26c.66 0 1.218-.085 1.672-.257a2.8 2.8 0 0 0 1.134-.776c.303-.346.53-.776.68-1.3s.226-1.113.226-1.8zm14.28 5.2a.91.91 0 0 1-.073.376.84.84 0 0 1-.199.276.74.74 0 0 1-.293.16 1.2 1.2 0 0 1-.345.051h-1.028a2.08 2.08 0 0 1-.557-.064 1.1 1.1 0 0 1-.431-.234 2.04 2.04 0 0 1-.381-.459c-.123-.193-.26-.443-.412-.75l-2.958-5.557-.523-1.07-.478-1.116h-.018l.055 1.317.018 1.354v6.218a.29.29 0 0 1-.05.166c-.033.05-.092.1-.175.124a1.33 1.33 0 0 1-.335.077 4.03 4.03 0 0 1-.542.028c-.214 0-.392-.01-.533-.028a1.33 1.33 0 0 1-.33-.077c-.08-.033-.135-.075-.166-.124a.31.31 0 0 1-.046-.166v-10.68c0-.288.084-.503.252-.648s.375-.216.62-.216h1.294c.233 0 .43.02.588.06a1.22 1.22 0 0 1 .427.198c.127.093.245.22.354.38a4.94 4.94 0 0 1 .339.602l2.315 4.344.4.776.38.763.358.748.34.735h.01l-.04-1.34-.013-1.33v-5.575a.28.28 0 0 1 .054-.166.42.42 0 0 1 .184-.128 1.24 1.24 0 0 1 .34-.078c.14-.015.322-.023.542-.023l.523.023c.14.016.25.04.327.078s.13.08.16.128.045.104.045.166v10.682h.005zm9.635-2.72c0 .626-.117 1.173-.35 1.644a3.4 3.4 0 0 1-.946 1.18c-.398.314-.864.552-1.397.712a5.94 5.94 0 0 1-1.708.238 6.29 6.29 0 0 1-1.143-.1c-.353-.066-.663-.148-.932-.243s-.495-.194-.675-.3-.312-.196-.4-.276a.7.7 0 0 1-.17-.344c-.033-.15-.05-.366-.05-.648l.02-.477a1.24 1.24 0 0 1 .06-.313c.03-.08.064-.136.1-.17s.1-.05.16-.05c.086 0 .207.05.362.152a6.52 6.52 0 0 0 .602.335c.245.122.537.234.877.335s.733.152 1.18.152a2.7 2.7 0 0 0 .789-.106c.232-.07.43-.17.592-.3a1.27 1.27 0 0 0 .372-.477 1.52 1.52 0 0 0 .129-.634c0-.27-.074-.5-.22-.693s-.34-.365-.575-.515a5.94 5.94 0 0 0-.803-.422l-.927-.42a8.54 8.54 0 0 1-.927-.5 3.7 3.7 0 0 1-.803-.671c-.236-.26-.427-.57-.575-.924s-.22-.78-.22-1.277c0-.57.106-1.07.317-1.502a3.1 3.1 0 0 1 .854-1.075 3.64 3.64 0 0 1 1.268-.638c.487-.14 1.003-.2 1.547-.2a5.58 5.58 0 0 1 .845.064 5.69 5.69 0 0 1 .789.175c.244.074.463.156.652.248s.316.168.376.23.102.113.124.156.04.1.055.17.026.16.03.267l.01.4-.015.45c-.01.122-.025.224-.045.303a.37.37 0 0 1-.092.175c-.04.037-.094.055-.16.055s-.175-.042-.322-.128-.328-.18-.542-.28-.462-.193-.743-.276-.6-.124-.927-.124c-.263 0-.493.032-.688.097a1.39 1.39 0 0 0-.491.267 1.05 1.05 0 0 0-.294.408 1.34 1.34 0 0 0-.096.505c0 .263.072.5.215.685a2.07 2.07 0 0 0 .579.514 6.24 6.24 0 0 0 .823.422l.937.42c.318.147.63.314.937.5a3.49 3.49 0 0 1 .818.67 3.14 3.14 0 0 1 .578.919c.148.355.222.77.222 1.246z"/></g></svg></g></g></g><g data-cell-id="GqR4CK8gAWeMVKo1so-z-1"><g><g><svg xmlns="http://www.w3.org/2000/svg" width="320" height="320" viewBox="-374 616 50 50" x="0" y="0" style="font-family: initial;"><circle fill="#0072c6" cx="-349" cy="641" r="25"/><g fill="#fff"><path opacity=".2" d="M-366.678 658.678c-9.763-9.763-9.763-25.592 0-35.355s25.592-9.763 35.355 0l-35.355 35.355z"/><path opacity=".8" d="M-326 640.996c0-5.152-1.748-10.12-4.968-14.168l-.184-.184c-.092-.092-.092-.184-.184-.276l-1.472-1.564A22.39 22.39 0 0 0-349 617.996h-.184c-6.072.092-11.684 2.392-16.008 6.716l-1.564 1.656c-.092.092-.092.184-.184.276l-.184.092c-3.128 4.048-4.876 9.108-4.876 14.26s1.748 10.12 4.968 14.168l.184.184c.092.092.092.184.184.276l1.472 1.564c4.324 4.324 9.936 6.716 16.008 6.716h.184c6.072 0 11.868-2.392 16.192-6.716l1.472-1.656c.092-.092.092-.184.184-.276l.184-.184c3.22-3.864 4.968-8.924 4.968-14.076zM-335.292 626c-.092 0-.184.092-.276.092-.184.092-.368.184-.46.184-.368.184-.828.276-1.288.46-.092 0-.184.092-.276.092-.552.184-1.012.276-1.564.46-.092 0-.276.092-.368.092-.828-2.208-1.84-4.14-3.036-5.612 2.668.828 5.152 2.3 7.268 4.232zm-13.892-5.336h.092c2.484 0 5.06 2.668 6.9 7.268-2.116.368-4.416.552-6.808.552s-4.784-.184-6.992-.552c1.748-4.508 4.324-7.176 6.808-7.268zm-6.532 1.196c-1.104 1.472-2.116 3.312-2.944 5.52h-.184c-.552-.184-1.104-.276-1.564-.46-.092 0-.184-.092-.276-.092-.368-.184-.828-.368-1.196-.552-.184-.092-.276-.092-.46-.184-.092-.092-.184-.092-.368-.184 2.116-1.748 4.416-3.22 6.992-4.048zm-6.992 34.132c.092 0 .184-.092.276-.092.184-.092.276-.092.46-.184.368-.184.828-.276 1.288-.46.092 0 .184-.092.276-.092.552-.184 1.012-.276 1.564-.46h.184c.828 2.116 1.84 4.048 2.944 5.52-2.576-.92-4.968-2.392-6.992-4.232zm13.616 5.336h-.092c-2.484-.092-5.06-2.668-6.808-7.176 2.208-.368 4.6-.552 6.992-.552s4.6.184 6.808.552c-1.748 4.508-4.416 7.176-6.9 7.176zm6.532-1.104c1.196-1.472 2.208-3.404 3.036-5.612.092 0 .276.092.368.092.552.184 1.104.276 1.564.46.092 0 .184.092.276.092.46.184.828.276 1.288.46.184.092.276.092.46.184.092 0 .184.092.368.184-2.208 1.84-4.692 3.312-7.36 4.14zm9.292-6.348c-.276 0-.46-.092-.736-.184s-.644-.276-.92-.368c-.092 0-.184-.092-.276-.092-1.104-.46-2.3-.736-3.496-1.104.276-1.104.552-2.208.736-3.312h-2.76c-.184 1.012-.368 1.932-.644 2.76-2.392-.46-4.968-.644-7.636-.644-2.76 0-5.336.276-7.82.736-.276-.92-.46-1.84-.644-2.852h-2.76c.184 1.196.46 2.3.736 3.404-1.104.276-2.208.644-3.22 1.012-.092.092-.276.092-.368.184-.276.092-.644.276-.92.368-.184 0-.46.092-.644.184-2.76-3.312-4.324-7.452-4.6-11.684h2.3v-2.668h-2.3c.276-4.232 1.84-8.28 4.508-11.5l.092-.092c.184.092.46.184.644.276.368.184.644.276 1.012.46.092 0 .184.092.276.092 1.012.368 2.116.736 3.312 1.012-.276 1.012-.46 2.024-.644 3.036h2.76l.552-2.484c2.484.46 5.152.736 7.82.736s5.244-.276 7.636-.644a53.93 53.93 0 0 1 .552 2.484h2.76c-.184-1.012-.368-2.024-.644-3.036 1.196-.276 2.3-.644 3.404-1.104.092 0 .276-.092.368-.092.368-.092.644-.276 1.012-.368.184-.092.46-.184.644-.276 2.668 3.312 4.324 7.36 4.6 11.592h-2.76v2.668h2.76c-.46 4.14-2.024 8.28-4.692 11.5z"/><path d="M-354.778 640.855c0 1.1-.143 2.023-.427 2.797s-.694 1.407-1.226 1.896-1.18.85-1.943 1.08-1.67.344-2.723.344h-2.838c-.2 0-.373-.06-.5-.178s-.206-.314-.206-.583v-10.36c0-.27.07-.464.206-.583a.75.75 0 0 1 .51-.179h3.05c1.06 0 1.958.124 2.696.373s1.36.615 1.865 1.102a4.74 4.74 0 0 1 1.153 1.804c.262.715.394 1.546.394 2.488zm-2.498.083a5.95 5.95 0 0 0-.198-1.571 3.35 3.35 0 0 0-.634-1.258 2.92 2.92 0 0 0-1.12-.83c-.456-.198-1.054-.3-1.796-.3h-1.222v8.082h1.26c.66 0 1.218-.085 1.672-.257a2.8 2.8 0 0 0 1.134-.776c.303-.346.53-.776.68-1.3s.226-1.113.226-1.8zm14.28 5.2a.91.91 0 0 1-.073.376.84.84 0 0 1-.199.276.74.74 0 0 1-.293.16 1.2 1.2 0 0 1-.345.051h-1.028a2.08 2.08 0 0 1-.557-.064 1.1 1.1 0 0 1-.431-.234 2.04 2.04 0 0 1-.381-.459c-.123-.193-.26-.443-.412-.75l-2.958-5.557-.523-1.07-.478-1.116h-.018l.055 1.317.018 1.354v6.218a.29.29 0 0 1-.05.166c-.033.05-.092.1-.175.124a1.33 1.33 0 0 1-.335.077 4.03 4.03 0 0 1-.542.028c-.214 0-.392-.01-.533-.028a1.33 1.33 0 0 1-.33-.077c-.08-.033-.135-.075-.166-.124a.31.31 0 0 1-.046-.166v-10.68c0-.288.084-.503.252-.648s.375-.216.62-.216h1.294c.233 0 .43.02.588.06a1.22 1.22 0 0 1 .427.198c.127.093.245.22.354.38a4.94 4.94 0 0 1 .339.602l2.315 4.344.4.776.38.763.358.748.34.735h.01l-.04-1.34-.013-1.33v-5.575a.28.28 0 0 1 .054-.166.42.42 0 0 1 .184-.128 1.24 1.24 0 0 1 .34-.078c.14-.015.322-.023.542-.023l.523.023c.14.016.25.04.327.078s.13.08.16.128.045.104.045.166v10.682h.005zm9.635-2.72c0 .626-.117 1.173-.35 1.644a3.4 3.4 0 0 1-.946 1.18c-.398.314-.864.552-1.397.712a5.94 5.94 0 0 1-1.708.238 6.29 6.29 0 0 1-1.143-.1c-.353-.066-.663-.148-.932-.243s-.495-.194-.675-.3-.312-.196-.4-.276a.7.7 0 0 1-.17-.344c-.033-.15-.05-.366-.05-.648l.02-.477a1.24 1.24 0 0 1 .06-.313c.03-.08.064-.136.1-.17s.1-.05.16-.05c.086 0 .207.05.362.152a6.52 6.52 0 0 0 .602.335c.245.122.537.234.877.335s.733.152 1.18.152a2.7 2.7 0 0 0 .789-.106c.232-.07.43-.17.592-.3a1.27 1.27 0 0 0 .372-.477 1.52 1.52 0 0 0 .129-.634c0-.27-.074-.5-.22-.693s-.34-.365-.575-.515a5.94 5.94 0 0 0-.803-.422l-.927-.42a8.54 8.54 0 0 1-.927-.5 3.7 3.7 0 0 1-.803-.671c-.236-.26-.427-.57-.575-.924s-.22-.78-.22-1.277c0-.57.106-1.07.317-1.502a3.1 3.1 0 0 1 .854-1.075 3.64 3.64 0 0 1 1.268-.638c.487-.14 1.003-.2 1.547-.2a5.58 5.58 0 0 1 .845.064 5.69 5.69 0 0 1 .789.175c.244.074.463.156.652.248s.316.168.376.23.102.113.124.156.04.1.055.17.026.16.03.267l.01.4-.015.45c-.01.122-.025.224-.045.303a.37.37 0 0 1-.092.175c-.04.037-.094.055-.16.055s-.175-.042-.322-.128-.328-.18-.542-.28-.462-.193-.743-.276-.6-.124-.927-.124c-.263 0-.493.032-.688.097a1.39 1.39 0 0 0-.491.267 1.05 1.05 0 0 0-.294.408 1.34 1.34 0 0 0-.096.505c0 .263.072.5.215.685a2.07 2.07 0 0 0 .579.514 6.24 6.24 0 0 0 .823.422l.937.42c.318.147.63.314.937.5a3.49 3.49 0 0 1 .818.67 3.14 3.14 0 0 1 .578.919c.148.355.222.77.222 1.246z"/></g></svg></g></g></g><g data-cell-id="GqR4CK8gAWeMVKo1so-z-5"><g><g transform="rotate(-60,172.7,355)"><svg xmlns="http://www.w3.org/2000/svg" width="225.4" height="230" x="60" y="240" viewBox="0 0 48.8 47.8" style="font-family: initial;"><g fill="#a0a1a2"><path d="M5.35 10.163l3.1-2.527 22 27-3.1 2.526z"/><path d="M6.9 6.9h33v4h-33z"/></g><circle cx="6.9" cy="8.9" r="6.9" fill="#804998"/><circle cx="6.9" cy="8.9" r="6.9" opacity=".2" fill="#fff"/><circle cx="39.9" cy="8.9" r="8.9" fill="#804998"/><circle cx="39.9" cy="8.9" r="8.9" opacity=".1" fill="#fff"/><circle cx="28.9" cy="35.9" r="11.9" fill="#804998"/></svg></g></g></g></g></g></g></svg>